<svg width="1444" height="1785" viewBox="0 0 1444 1785" fill="none" xmlns="http://www.w3.org/2000/svg">
<path d="M578 95L585 51L602.5 68.5L627 40L612 11.5L652 0L718 40L746.5 95L764 153L845 179.5L983 142L995.5 104.5H1030.5V142L1079 159.5L1052.5 262.5L1030.5 312.5L995.5 299L898.5 240.5V341L1038 371L1098.5 401.5L1142 441L1112 460.5L1089.5 464L1122 535.5L1242 559L1248 612L1224 750.5L1283 861H1333.5V888H1283L1260 968.527L1322 998L1356.5 1050.5L1428 1154.5L1443.5 1249.5L1428 1294L1333.5 1346L1368 1381.5L1333.5 1436L1175 1493H1038L984 1526H824.5L586.5 1381.5L465.5 1165.5L423 1083.5V1201.59L555 1448.5L677.5 1481.5L824.5 1634L767 1663.5V1756.5L721.5 1784.5L619.5 1731.5L515.5 1590L287.5 1618L138.5 1566L69 1346L218.5 1201.59L129 1228.5L13 968.527L47 851L13 703L0 612L129 483L140 422L309.5 385.5L297 357.5H234L218.5 312.5L372.5 200L489 262.5L452.5 341V472L465.5 464L517 349.5L553 299V179.5L578 95Z" fill="#D9D9D9"/>
</svg>
